<svg width="220" height="178" viewBox="0 0 220 178" fill="none" xmlns="http://www.w3.org/2000/svg">
<circle cx="110" cy="88" r="80" fill="#EFF0F5"/>
<circle cx="26" cy="28" r="8" fill="#F5F5FA"/>
<circle cx="198" cy="134" r="6" fill="#F5F5FA"/>
<circle cx="25" cy="146" r="10" fill="#F5F5FA"/>
<circle cx="210" cy="54" r="10" fill="#F5F5FA"/>
<circle cx="191" cy="19" r="7" fill="#F5F5FA"/>
<g filter="url(#filter0_dd_4929_164887)">
<path d="M110 54.9529L116.912 52.0578L110.001 55.002V137.432L173.69 110.743V28.2767L174 28.1466L173.69 28.009V27.8705L173.53 27.9384L110.503 0L46 27.4765L46.3053 27.6076L46 109.74L110 137.383L110 54.9529Z" fill="#FAFAFC"/>
<path d="M110 54.9531V137.383L46 109.74L46.3053 27.6076L110 54.9531Z" fill="url(#paint0_linear_4929_164887)"/>
<path d="M110.001 55.002V137.432L173.69 110.743V27.8705L110.001 55.002Z" fill="url(#paint1_linear_4929_164887)"/>
<path d="M110 54.9529L174 28.1466L110.503 0L46 27.4765L110 54.9529Z" fill="#F5F5FA"/>
<path d="M70.1256 17.1997L133.882 44.9503L134.461 65.173L152.299 57.8126L151.759 37.4622L86.1173 10.3876L70.1256 17.1997Z" fill="#EFF0F5"/>
</g>
<g filter="url(#filter1_b_4929_164887)">
<rect x="82" y="104" width="60" height="60" rx="30" fill="#EFF0F5"/>
<path d="M108.5 139.833V132.833L106.167 135.167" stroke="#1C8CC4" stroke-width="1.5" stroke-linecap="round" stroke-linejoin="round"/>
<path d="M108.5 132.833L110.833 135.167" stroke="#1C8CC4" stroke-width="1.5" stroke-linecap="round" stroke-linejoin="round"/>
<path d="M123.667 131.667V137.5C123.667 143.333 121.333 145.667 115.5 145.667H108.5C102.667 145.667 100.333 143.333 100.333 137.5V130.5C100.333 124.667 102.667 122.333 108.5 122.333H114.333" stroke="#1C8CC4" stroke-width="1.5" stroke-linecap="round" stroke-linejoin="round"/>
<path d="M123.667 131.667H119C115.5 131.667 114.333 130.5 114.333 127V122.333L123.667 131.667Z" stroke="#1C8CC4" stroke-width="1.5" stroke-linecap="round" stroke-linejoin="round"/>
</g>
<defs>
<filter id="filter0_dd_4929_164887" x="26" y="0" width="168" height="177.432" filterUnits="userSpaceOnUse" color-interpolation-filters="sRGB">
<feFlood flood-opacity="0" result="BackgroundImageFix"/>
<feColorMatrix in="SourceAlpha" type="matrix" values="0 0 0 0 0 0 0 0 0 0 0 0 0 0 0 0 0 0 127 0" result="hardAlpha"/>
<feMorphology radius="4" operator="erode" in="SourceAlpha" result="effect1_dropShadow_4929_164887"/>
<feOffset dy="8"/>
<feGaussianBlur stdDeviation="4"/>
<feColorMatrix type="matrix" values="0 0 0 0 0.0627451 0 0 0 0 0.0941176 0 0 0 0 0.156863 0 0 0 0.03 0"/>
<feBlend mode="normal" in2="BackgroundImageFix" result="effect1_dropShadow_4929_164887"/>
<feColorMatrix in="SourceAlpha" type="matrix" values="0 0 0 0 0 0 0 0 0 0 0 0 0 0 0 0 0 0 127 0" result="hardAlpha"/>
<feMorphology radius="4" operator="erode" in="SourceAlpha" result="effect2_dropShadow_4929_164887"/>
<feOffset dy="20"/>
<feGaussianBlur stdDeviation="12"/>
<feColorMatrix type="matrix" values="0 0 0 0 0.0627451 0 0 0 0 0.0941176 0 0 0 0 0.156863 0 0 0 0.08 0"/>
<feBlend mode="normal" in2="effect1_dropShadow_4929_164887" result="effect2_dropShadow_4929_164887"/>
<feBlend mode="normal" in="SourceGraphic" in2="effect2_dropShadow_4929_164887" result="shape"/>
</filter>
<filter id="filter1_b_4929_164887" x="74" y="96" width="76" height="76" filterUnits="userSpaceOnUse" color-interpolation-filters="sRGB">
<feFlood flood-opacity="0" result="BackgroundImageFix"/>
<feGaussianBlur in="BackgroundImageFix" stdDeviation="4"/>
<feComposite in2="SourceAlpha" operator="in" result="effect1_backgroundBlur_4929_164887"/>
<feBlend mode="normal" in="SourceGraphic" in2="effect1_backgroundBlur_4929_164887" result="shape"/>
</filter>
<linearGradient id="paint0_linear_4929_164887" x1="46" y1="110.154" x2="71.2754" y2="41.7014" gradientUnits="userSpaceOnUse">
<stop stop-color="#DEE1E8"/>
<stop offset="1" stop-color="#EFF1F5"/>
</linearGradient>
<linearGradient id="paint1_linear_4929_164887" x1="110" y1="56.6154" x2="182.166" y2="70.983" gradientUnits="userSpaceOnUse">
<stop stop-color="#E4E7EC"/>
<stop offset="1" stop-color="#F2F4F7"/>
</linearGradient>
</defs>
</svg>
