<svg width="58" height="40" viewBox="0 0 58 40" fill="none" xmlns="http://www.w3.org/2000/svg">
<rect x="0.5" y="0.5" width="57" height="39" rx="5.5" fill="white"/>
<path d="M37 39L56 33.25V36C56 37.6569 54.6569 39 53 39H37Z" fill="#FD6020"/>
<path fill-rule="evenodd" clip-rule="evenodd" d="M48.9895 15.1847C50.7316 15.1847 51.6898 15.9906 51.6898 17.5129C51.7769 18.677 50.9929 19.662 49.9476 19.8411L52.2996 23.1542H50.4703L48.4668 19.9306H48.2926V23.1542H46.8118V15.1847H48.9895ZM48.2922 18.8561H48.7278C49.686 18.8561 50.1215 18.4084 50.1215 17.6025C50.1215 16.8861 49.686 16.4384 48.7278 16.4384H48.2922V18.8561ZM41.6729 23.1542H45.854V21.811H43.1537V19.6619H45.7669V18.3188H43.1537V16.5279H45.854V15.1847H41.6729V23.1542ZM37.3165 20.5574L35.3131 15.1847H33.7451L36.9681 23.3333H37.7521L40.9751 15.1847H39.4071L37.3165 20.5574ZM19.6338 19.2143C19.6338 21.4529 21.3759 23.3334 23.5536 23.3334C24.2505 23.3334 24.8603 23.1543 25.47 22.8857V21.0948C25.0345 21.632 24.4247 21.9902 23.7279 21.9902C22.3341 21.9902 21.2017 20.9157 21.2017 19.4829V19.3039C21.1146 17.8711 22.247 16.6175 23.6408 16.528C24.3376 16.528 25.0345 16.8861 25.47 17.4234V15.6325C24.9474 15.2743 24.2505 15.1848 23.6408 15.1848C21.3759 15.0057 19.6338 16.8861 19.6338 19.2143ZM16.9333 18.2293C16.0623 17.8711 15.8009 17.692 15.8009 17.2443C15.8881 16.707 16.3236 16.2593 16.8462 16.3488C17.2818 16.3488 17.7173 16.6175 18.0658 16.9756L18.8497 15.9011C18.24 15.3638 17.456 15.0057 16.672 15.0057C15.4525 14.9161 14.4072 15.9011 14.3201 17.1547V17.2443C14.3201 18.3188 14.7557 18.9456 16.1494 19.3934C16.4978 19.4829 16.8462 19.662 17.1947 19.8411C17.456 20.0202 17.6302 20.2888 17.6302 20.647C17.6302 21.2738 17.1076 21.8111 16.5849 21.8111H16.4978C15.8009 21.8111 15.1912 21.3633 14.9299 20.7365L13.9717 21.7215C14.4943 22.7065 15.5396 23.2438 16.5849 23.2438C17.9786 23.3333 19.111 22.2588 19.1982 20.8261V20.5574C19.111 19.4829 18.6755 18.9456 16.9333 18.2293ZM11.8818 23.1542H13.3627V15.1847H11.8818V23.1542ZM5 15.1848H7.1777H7.61324C9.70382 15.2743 11.3589 17.0652 11.2718 19.2143C11.2718 20.3784 10.7491 21.4529 9.87804 22.2588C9.09407 22.8856 8.13588 23.2438 7.1777 23.1543H5V15.1848ZM6.91601 21.8111C7.61287 21.9007 8.39684 21.632 8.91949 21.1843C9.44214 20.647 9.70346 19.9307 9.70346 19.1248C9.70346 18.4084 9.44214 17.6921 8.91949 17.1548C8.39684 16.7071 7.61287 16.4384 6.91601 16.528H6.48047V21.8111H6.91601Z" fill="black"/>
<path fill-rule="evenodd" clip-rule="evenodd" d="M29.9132 15C27.7355 15 25.9062 16.7909 25.9062 19.1191C25.9062 21.3577 27.6484 23.2381 29.9132 23.3277C32.178 23.4172 33.9202 21.5368 34.0073 19.2086C33.9202 16.8804 32.178 15 29.9132 15V15Z" fill="#FD6020"/>
<rect x="0.5" y="0.5" width="57" height="39" rx="5.5" stroke="#F5F5FA"/>
</svg>
