<svg width="58" height="40" viewBox="0 0 58 40" fill="none" xmlns="http://www.w3.org/2000/svg">
<rect x="0.5" y="0.5" width="57" height="39" rx="5.5" fill="white"/>
<path d="M44.591 8H12.6248C11.1761 8 10 9.1808 10 10.6352V29.3648C10 30.8192 11.1761 32 12.6248 32H44.5958C46.0444 32 47.2206 30.8192 47.2206 29.3648V10.6352C47.2158 9.1808 46.0397 8 44.591 8Z" fill="#F37421"/>
<path d="M14.7432 14.7152V23.1152H16.6412V19.6016H19.7585V23.1152H21.647V14.7152H19.7585V17.9456H16.6412V14.7152H14.7432Z" fill="white"/>
<path d="M37.9889 20.672C38.0128 20.5328 38.051 20.2496 38.051 19.9232C38.051 18.416 37.3052 16.88 35.3449 16.88C33.2365 16.88 32.2803 18.5888 32.2803 20.1344C32.2803 22.04 33.4612 23.24 35.5218 23.24C36.3394 23.24 37.0996 23.1152 37.7211 22.8656L37.4725 21.584C36.9657 21.7472 36.4398 21.8336 35.7944 21.8336C34.9146 21.8336 34.1449 21.4592 34.0827 20.6768H37.9889V20.672ZM34.0636 19.376C34.1114 18.8672 34.4365 18.1424 35.2302 18.1424C36.1003 18.1424 36.2964 18.9152 36.2964 19.376H34.0636Z" fill="white"/>
<path d="M38.6533 23.1152H40.5418V20.024C40.5418 19.8752 40.5561 19.7264 40.5801 19.6016C40.7044 19.016 41.1777 18.6416 41.8709 18.6416C42.0813 18.6416 42.2439 18.6656 42.3777 18.6896V16.9088C42.2391 16.8848 42.153 16.8848 41.9809 16.8848C41.3976 16.8848 40.6518 17.2592 40.341 18.1424H40.2932L40.231 17.0192H38.6055C38.6294 17.5424 38.6533 18.128 38.6533 19.0256V23.1152Z" fill="white"/>
<path fill-rule="evenodd" clip-rule="evenodd" d="M23.5643 14.3792C24.0998 14.3792 24.5349 14.816 24.5349 15.3536C24.5349 15.8912 24.0998 16.328 23.5643 16.328C23.0288 16.328 22.5938 15.8912 22.5938 15.3536C22.5938 14.816 23.0288 14.3792 23.5643 14.3792Z" fill="#FFE700"/>
<path fill-rule="evenodd" clip-rule="evenodd" d="M27.5517 21.6944H28.4984C29.4498 21.6944 29.8801 21.0848 29.8801 20.4464C29.8801 19.808 29.8323 18.368 28.6609 18.368C27.3127 18.368 27.5278 20.1584 27.5374 21.0944C27.5326 21.296 27.5469 21.4976 27.5517 21.6944ZM22.5938 17.0144H24.5349V20.4512C24.5349 21.0896 24.8887 21.6992 25.668 21.6992C25.6728 20.1536 25.668 18.56 25.6154 17.0144H27.2362C27.2696 17.312 27.3031 17.6096 27.3318 17.9072C28.0968 16.3712 30.5112 16.7072 31.324 18.008C32.1607 19.3472 32.4475 23.1872 28.4984 23.1872H27.5804C27.59 23.9648 27.59 24.7472 27.59 25.5296H25.6489C25.6489 24.7808 25.6536 23.9936 25.6584 23.1872C23.5595 23.1776 22.5938 21.8432 22.5938 20.4512V17.0144Z" fill="white"/>
<rect x="0.5" y="0.5" width="57" height="39" rx="5.5" stroke="#F5F5FA"/>
</svg>
