<svg width="58" height="40" viewBox="0 0 58 40" fill="none" xmlns="http://www.w3.org/2000/svg">
<rect x="0.5" y="0.5" width="57" height="39" rx="5.5" fill="white"/>
<path d="M25.3054 29.993L6 30V29.9538C6 29.9284 6.03079 29.7637 6.06839 29.5877C6.10605 29.4118 6.16453 29.132 6.19849 28.966C6.23232 28.7999 6.29026 28.5177 6.32711 28.3388C6.4178 27.9016 6.50741 27.4641 6.59588 27.0265C6.63071 26.8539 6.68872 26.5717 6.72497 26.3993C6.77119 26.1788 6.81688 25.9581 6.86222 25.7373C6.90143 25.5457 6.96106 25.253 6.99475 25.0869C7.02844 24.9207 7.08193 24.6647 7.11367 24.5179C7.14534 24.371 7.18583 24.1724 7.20348 24.0765C7.2212 23.9807 7.27854 23.6984 7.33089 23.4493C7.37496 23.2405 7.41781 23.0315 7.45924 22.8222C7.4775 22.7264 7.53551 22.4441 7.5882 22.195C7.64082 21.946 7.69863 21.6638 7.71669 21.5679C7.73475 21.4721 7.79289 21.1899 7.84585 20.9408C7.89894 20.6916 7.95622 20.4147 7.97306 20.3253C7.99004 20.2359 8.03639 20.0059 8.07615 19.8143C8.11583 19.6227 8.19102 19.262 8.24317 19.0129C8.29539 18.7638 8.3846 18.33 8.44139 18.0488C8.49833 17.7678 8.56631 17.4334 8.59252 17.3056C8.66953 16.93 8.74722 16.5544 8.82571 16.1791C8.86439 15.9937 8.92725 15.6907 8.96545 15.5054C9.00372 15.3201 9.06261 15.0327 9.09636 14.8667C9.13012 14.7006 9.18773 14.4237 9.22438 14.2511C9.26103 14.0787 9.3241 13.7755 9.36452 13.5775C9.40495 13.3794 9.47266 13.0763 9.51497 12.9039C9.55729 12.7314 9.61712 12.5223 9.64798 12.4394C9.67877 12.3562 9.76386 12.1763 9.83703 12.0393L9.9701 11.7903L10.091 11.6328C10.1575 11.5462 10.2763 11.4094 10.3549 11.3288C10.4335 11.2481 10.5661 11.1267 10.6497 11.0591C10.7332 10.9914 10.8542 10.9 10.9184 10.8561C10.9826 10.8121 11.1088 10.7352 11.1988 10.6851C11.2887 10.635 11.415 10.5694 11.4792 10.5393C11.5435 10.5093 11.6749 10.4543 11.7713 10.4172C11.8676 10.3802 12.0516 10.3182 12.1801 10.2794C12.3086 10.2405 12.5499 10.182 12.7162 10.1494C12.8826 10.1167 13.1454 10.073 13.3004 10.0523L13.5821 10.0147L32.8997 10.0074L52.2172 10V10.0462C52.2172 10.0716 52.1862 10.2363 52.1484 10.4122C52.1007 10.6348 52.0538 10.8575 52.0078 11.0805C51.9682 11.2721 51.9107 11.5491 51.8797 11.696C51.8359 11.905 51.7924 12.114 51.7494 12.3231C51.7088 12.5212 51.6462 12.8244 51.6104 12.9968C51.5747 13.1692 51.5167 13.4515 51.4816 13.6239C51.4466 13.7964 51.3882 14.0786 51.3521 14.251C51.3099 14.4523 51.2682 14.6536 51.2271 14.8551C51.1947 15.0148 51.136 15.3022 51.0967 15.4938C51.0574 15.6854 50.9942 15.9886 50.9564 16.1674C50.9185 16.3463 50.8608 16.6233 50.8282 16.783C50.7955 16.9426 50.7368 17.2301 50.6976 17.4216C50.6584 17.6133 50.5954 17.9165 50.5575 18.0954C50.5197 18.2742 50.4634 18.546 50.4322 18.6993C50.3457 19.1252 50.2587 19.5511 50.1711 19.9769C50.1395 20.1301 50.0831 20.4019 50.0458 20.5808C49.9981 20.809 49.9508 21.0374 49.9038 21.266C49.863 21.464 49.8047 21.7461 49.7742 21.8932C49.7436 22.04 49.6866 22.317 49.6472 22.5086C49.6011 22.7332 49.5548 22.9577 49.5082 23.1822C49.4711 23.3611 49.4129 23.6434 49.3788 23.8095C49.3448 23.9755 49.2856 24.263 49.2474 24.4481C49.2091 24.6334 49.1465 24.9365 49.1085 25.1218C49.0703 25.307 49.0132 25.5841 48.9815 25.7374C48.9382 25.9463 48.8954 26.1553 48.8526 26.3644C48.8066 26.5884 48.7595 26.8121 48.711 27.0355L48.6407 27.3582L48.5569 27.5813C48.5108 27.7041 48.4415 27.8673 48.4028 27.944C48.3643 28.0206 48.2857 28.1558 48.2281 28.2445C48.1706 28.3331 48.0904 28.4467 48.05 28.4968C48.0095 28.547 47.8878 28.6765 47.7793 28.7848L47.5823 28.9814L47.3927 29.1153C47.2884 29.1891 47.176 29.264 47.1431 29.2818C47.1101 29.2998 46.9844 29.3636 46.8638 29.4235C46.7432 29.4835 46.5729 29.5599 46.4853 29.5932C46.3977 29.6266 46.2242 29.6834 46.0998 29.7194C45.9753 29.7555 45.8419 29.791 45.8035 29.7983C45.7648 29.8056 45.631 29.8332 45.506 29.8595C45.3811 29.8859 45.1287 29.9251 44.9453 29.9468L44.6118 29.9863L25.3064 29.993H25.3054ZM18.4371 25.0288H18.9394L18.9536 24.992C18.9615 24.9718 18.9678 24.9243 18.9678 24.8865C18.9678 24.8486 18.9844 24.711 19.0046 24.5807C19.0249 24.4502 19.0723 24.1502 19.1102 23.9139C19.148 23.6775 19.2046 23.3221 19.2359 23.1241C19.2658 22.9366 19.2942 22.7488 19.3212 22.5608C19.3366 22.449 19.3554 22.3576 19.363 22.3576C19.3706 22.3576 19.403 22.407 19.4352 22.4674L19.4935 22.5772L19.623 22.707L19.7526 22.8367L19.912 22.9002L20.0715 22.9636L20.2615 22.9881L20.4516 23.0125L20.6927 22.9979L20.9339 22.9831L21.1951 22.916L21.4563 22.8486L21.5964 22.7851C21.6736 22.7502 21.8102 22.6738 21.9002 22.6156L22.0637 22.5097L22.2162 22.3581C22.3001 22.275 22.4184 22.1413 22.4791 22.0612C22.5398 21.9812 22.5895 21.9099 22.5895 21.9028C22.5895 21.8957 22.6193 21.8461 22.6558 21.7927C22.6922 21.7393 22.7668 21.5909 22.8215 21.4633C22.8762 21.3356 22.9617 21.1056 23.0115 20.9523L23.1021 20.6735L23.1489 20.4321C23.1747 20.2994 23.2078 20.0798 23.2226 19.9443L23.2493 19.698L23.2338 19.4889L23.2184 19.2799L23.1695 19.0708L23.1208 18.8618L23.0419 18.7053L22.963 18.5487L22.8105 18.3881L22.6581 18.2275L22.4777 18.1348L22.2973 18.0421L22.0987 17.9948L21.9001 17.9476L21.7015 17.9331L21.5029 17.9186L21.2817 17.9438L21.0604 17.9691L20.8799 18.015L20.6993 18.0608L20.5424 18.133C20.4561 18.1727 20.3305 18.2401 20.2634 18.2828C20.1963 18.3256 20.1269 18.3746 20.1094 18.392C20.092 18.4093 20.05 18.4415 20.0163 18.4634L19.9549 18.5034L19.9978 18.2993C20.0214 18.1871 20.0411 18.0823 20.0416 18.0662L20.0426 18.0372H19.1858L19.1108 18.5075C19.0694 18.7663 19.0042 19.1661 18.9658 19.3961C18.8811 19.9034 18.7954 20.4105 18.7087 20.9175C18.6705 21.141 18.6073 21.4964 18.5683 21.7072C18.5293 21.918 18.4722 22.2264 18.4414 22.3925C18.4106 22.5585 18.3525 22.8721 18.3125 23.0892C18.2653 23.3448 18.2176 23.6004 18.1694 23.8558C18.1238 24.0959 18.0771 24.3359 18.0296 24.5758C17.9914 24.7674 17.9544 24.9478 17.9474 24.9764L17.9346 25.0287H18.4371V25.0288ZM20.5999 22.3432L20.4048 22.3549L20.2773 22.3324L20.1498 22.3101L20.0203 22.2513L19.8907 22.1925L19.8003 22.1066L19.7098 22.0208L19.6576 21.9047C19.6288 21.8408 19.592 21.7323 19.5756 21.6634L19.5458 21.5385L19.5577 21.3383L19.5697 21.1382L19.6299 20.8246C19.6753 20.5848 19.7194 20.3448 19.762 20.1045C19.8015 19.8809 19.8615 19.5533 19.8951 19.3765L19.9562 19.055L20.0901 18.9442C20.1639 18.8834 20.2806 18.8016 20.3496 18.7628L20.4749 18.692L20.6384 18.6417L20.802 18.5914L21.0123 18.579L21.2226 18.5668L21.3938 18.6031L21.565 18.6393L21.6859 18.6947L21.8067 18.75L21.908 18.8513L22.0094 18.9525L22.064 19.0598C22.0941 19.1188 22.1364 19.2342 22.1579 19.3164L22.197 19.4657L22.185 19.9071L22.173 20.3485L22.1131 20.6094C22.0801 20.7528 22.0173 20.9723 21.9735 21.097L21.8939 21.324L21.7963 21.5077C21.7427 21.6088 21.66 21.7453 21.6126 21.811C21.5652 21.8768 21.4895 21.9623 21.4445 22.0006C21.39 22.0467 21.3342 22.0912 21.2771 22.134L21.1915 22.1975L20.9932 22.2646L20.7949 22.3316L20.5999 22.3432ZM25.4517 22.9818L25.7088 22.9847L25.9657 22.9614C26.1072 22.9486 26.3384 22.9219 26.4797 22.902C26.6212 22.8823 26.8653 22.8379 27.0225 22.8036L27.3081 22.7411L27.3224 22.6364C27.3301 22.5789 27.3623 22.4075 27.3936 22.2556L27.4507 21.9793L27.438 21.9668L27.4254 21.9543L27.3381 21.9962C27.2901 22.0192 27.1404 22.0743 27.0057 22.1184L26.7606 22.1986L26.5033 22.2482L26.2461 22.2977L25.8372 22.2986L25.4283 22.2993L25.2881 22.2549C25.211 22.2304 25.0977 22.1857 25.0361 22.1553L24.9244 22.1003L24.8321 22.0175L24.7398 21.9346L24.6678 21.8095L24.5958 21.6843L24.5506 21.5275L24.5055 21.3705L24.5052 21.08L24.5049 20.7896L24.5449 20.5306L24.5851 20.2714L24.9367 20.2551L25.2883 20.2388L26.588 20.2471L27.8877 20.2554L27.9269 20.0899C27.9486 19.9989 27.9816 19.8107 28.0003 19.6718L28.0344 19.4192L28.0351 19.2067L28.0359 18.9942L27.999 18.8356L27.9618 18.6769L27.9007 18.5719C27.8671 18.5142 27.8077 18.4305 27.7689 18.3859C27.7301 18.3413 27.6608 18.2784 27.6149 18.2463C27.5689 18.2141 27.4788 18.1599 27.4145 18.1259L27.2978 18.0642L27.0937 18.0153L26.8895 17.9664L26.6382 17.9425L26.3866 17.9187L26.153 17.9338L25.9193 17.9489L25.6389 18.0025L25.3585 18.0561L25.1832 18.1257C25.0868 18.1638 24.9397 18.2338 24.8562 18.2809C24.7726 18.328 24.657 18.4046 24.5993 18.4511C24.5413 18.4977 24.4411 18.5884 24.3767 18.6525C24.3121 18.7166 24.2166 18.8317 24.1646 18.9083C24.1124 18.9851 24.0325 19.1209 23.9868 19.2103C23.9413 19.2998 23.8819 19.4252 23.8549 19.489C23.828 19.5529 23.7788 19.6835 23.7459 19.7793C23.7129 19.8752 23.661 20.0581 23.6308 20.1859C23.5951 20.3407 23.5642 20.4965 23.5383 20.6532L23.501 20.8883L23.5014 21.2339L23.5018 21.5796L23.5372 21.7305C23.5567 21.8136 23.5941 21.939 23.6201 22.0093C23.6462 22.0796 23.6945 22.1841 23.7275 22.2416C23.7604 22.2991 23.8307 22.3916 23.8837 22.4473C23.9366 22.5029 24.0326 22.5874 24.0968 22.6349C24.161 22.6824 24.2754 22.7494 24.3509 22.7835L24.4883 22.8457L24.6798 22.8918C24.7852 22.9171 24.9442 22.9471 25.0332 22.9585C25.1219 22.9695 25.3104 22.9803 25.4517 22.9818ZM25.8918 19.7096C25.2449 19.7096 24.7157 19.7051 24.7157 19.6994C24.7157 19.6938 24.7433 19.6128 24.7771 19.5193C24.8108 19.4259 24.8701 19.287 24.9087 19.2106L24.9791 19.0715L25.1336 18.9187L25.2881 18.7658L25.4401 18.6936C25.5235 18.6539 25.634 18.6107 25.6854 18.5975C25.7369 18.5844 25.8839 18.567 26.0124 18.5589L26.2462 18.5439L26.4256 18.5669L26.605 18.5898L26.7354 18.6492L26.8659 18.7086L26.9374 18.7853C26.9767 18.8274 27.0235 18.8896 27.0416 18.9232L27.0741 18.9845L27.0957 19.1207L27.1173 19.2568L27.0926 19.4832L27.0679 19.7098H25.8918V19.7096ZM32.8821 22.9819L33.1393 22.9847L33.4311 22.9503C33.5917 22.9314 33.8054 22.9001 33.9061 22.8806C34.0278 22.8563 34.1486 22.8277 34.2683 22.7952C34.3668 22.7675 34.4559 22.7375 34.4663 22.7287C34.4768 22.7198 34.5045 22.6144 34.5282 22.4944C34.5518 22.3745 34.5815 22.2137 34.5943 22.137C34.6069 22.0603 34.6135 21.9935 34.6089 21.9885C34.6042 21.9835 34.587 21.99 34.5706 22.0028C34.5542 22.0158 34.4396 22.0638 34.3159 22.1094L34.0909 22.1925L33.7704 22.2542L33.45 22.3159L33.1777 22.3067L32.9053 22.2975L32.7505 22.244L32.5957 22.1906L32.4762 22.0867L32.3568 21.9827L32.2774 21.839L32.1981 21.6955L32.1602 21.5033L32.1224 21.3113L32.1228 21.0621L32.123 20.8128L32.1688 20.5109L32.2148 20.2088L32.2634 20.0462C32.29 19.9568 32.3204 19.8523 32.3305 19.814C32.3408 19.7756 32.3836 19.6659 32.4257 19.57C32.4679 19.4742 32.543 19.3261 32.5928 19.2409L32.6832 19.0861L32.7943 18.9716L32.9053 18.8571L33.0229 18.7847L33.1406 18.7121L33.2917 18.6659C33.3747 18.6405 33.5216 18.6074 33.618 18.5926L33.7933 18.5654L34.0502 18.5782L34.3072 18.591L34.611 18.6514L34.9148 18.7117L35.0383 18.7576C35.1062 18.7827 35.1647 18.8035 35.1684 18.8035C35.1721 18.8035 35.1884 18.7172 35.2046 18.6118C35.2209 18.5065 35.2499 18.333 35.269 18.2265C35.2882 18.1199 35.2993 18.0281 35.2936 18.0226C35.288 18.0169 35.1967 18.0025 35.0908 17.9905C34.9848 17.9786 34.6967 17.9573 34.4508 17.9431L34.0035 17.9176L33.688 17.9416L33.3726 17.9657L33.1389 18.0145L32.9052 18.0633L32.7547 18.1231C32.6719 18.156 32.5508 18.2154 32.4854 18.2551C32.4226 18.293 32.361 18.3326 32.3004 18.3737C32.264 18.3993 32.1538 18.4989 32.0553 18.5953L31.8764 18.7703L31.7764 18.9158C31.7216 18.9959 31.6265 19.1627 31.5653 19.2866L31.454 19.5119L31.3686 19.7558C31.3217 19.8899 31.2562 20.1094 31.2231 20.2436L31.1628 20.4875L31.1409 20.7082L31.119 20.9289L31.1192 21.2192L31.1195 21.5095L31.1415 21.6784L31.1636 21.8474L31.2336 22.0211L31.3035 22.1948L31.3844 22.3204L31.4652 22.446L31.5936 22.5718L31.7223 22.6975L31.8582 22.7691L31.9943 22.8404L32.1728 22.8898C32.271 22.9168 32.4129 22.948 32.4883 22.9589C32.5636 22.9698 32.7408 22.9801 32.8823 22.9816H32.8821V22.9819ZM36.7255 22.9734L37.0409 22.9643L37.2395 22.9138L37.4382 22.8632L37.5667 22.8029C37.6374 22.7697 37.753 22.7041 37.8236 22.6571C37.8944 22.6103 38.0039 22.521 38.0668 22.4589C38.1298 22.3968 38.2232 22.2908 38.2744 22.2234C38.3256 22.1559 38.3707 22.1039 38.3744 22.1076C38.3783 22.1114 38.3664 22.2187 38.3482 22.3462C38.33 22.4738 38.3149 22.6435 38.3147 22.7234L38.3143 22.8685H39.1719L39.185 22.5376L39.198 22.2066L39.2592 21.7768C39.2929 21.5404 39.3473 21.1903 39.3801 20.9987C39.4128 20.8071 39.4698 20.4832 39.5067 20.2787C39.5436 20.0742 39.602 19.7554 39.6364 19.5702L39.6992 19.2334L39.7014 18.9425L39.7034 18.6515L39.6373 18.5171L39.5711 18.3826L39.4814 18.297L39.3916 18.2113L39.2444 18.1372L39.097 18.063L38.8774 18.0144L38.6578 17.9658L38.3556 17.943L38.0532 17.9201L37.6639 17.9441C37.4496 17.9572 37.1484 17.9832 36.9942 18.0018L36.7137 18.0356L36.5227 18.0364L36.3316 18.0371L36.3037 18.1707C36.2884 18.2441 36.2459 18.4186 36.2093 18.5585C36.1726 18.6984 36.1462 18.8162 36.1503 18.8203C36.1544 18.8244 36.2566 18.8014 36.3773 18.7691C36.4981 18.7367 36.7547 18.6837 36.9475 18.6509L37.2979 18.5916L37.6133 18.5787L37.9288 18.5658L38.132 18.6012L38.3353 18.6366L38.4708 18.7031L38.6065 18.7697L38.6824 18.8822L38.7584 18.9947L38.7573 19.172L38.7562 19.3495L38.7159 19.544L38.6756 19.7387L37.8348 19.7418L36.9941 19.7447L36.719 19.8197C36.5677 19.861 36.4001 19.9158 36.3466 19.9414C36.2931 19.9671 36.2396 19.9882 36.2277 19.9882C36.2158 19.9882 36.1258 20.0377 36.0276 20.0984L35.8492 20.2086L35.7087 20.3481C35.6314 20.4248 35.5327 20.5398 35.4893 20.6037C35.4458 20.6675 35.3754 20.8009 35.3326 20.9002L35.2549 21.0806L35.2192 21.2834L35.1835 21.4862V21.9119L35.2176 22.0891L35.2517 22.2663L35.3149 22.3819C35.3498 22.4454 35.4137 22.5385 35.4568 22.5888L35.5355 22.6801L35.6752 22.7645L35.8149 22.849L35.9749 22.8939C36.0629 22.9186 36.1968 22.9486 36.2725 22.9606L36.4101 22.9821L36.7256 22.9731H36.7255V22.9734ZM37.0176 22.3237L36.8307 22.3335L36.7069 22.3021C36.6388 22.2849 36.5355 22.2465 36.4773 22.2167L36.3716 22.1626L36.3138 22.0944C36.282 22.0567 36.2336 21.9831 36.206 21.9305L36.1559 21.8349L36.1461 21.6116L36.1362 21.3883L36.1759 21.2529C36.1976 21.1785 36.2488 21.0491 36.2895 20.9656L36.3635 20.8138L36.5053 20.674L36.6469 20.5341L36.7973 20.4621L36.9476 20.3903L37.1345 20.3461L37.3214 20.3018H38.4897L38.5267 20.3171L38.5636 20.3323L38.5326 20.5146C38.5154 20.6148 38.4747 20.7962 38.4418 20.9175C38.4091 21.039 38.3513 21.2173 38.3134 21.314C38.2755 21.4107 38.2444 21.4962 38.2444 21.5039C38.2444 21.5118 38.206 21.5822 38.159 21.6605L38.0737 21.803L37.9336 21.9411C37.8566 22.0169 37.785 22.079 37.7746 22.079C37.7643 22.079 37.7171 22.1052 37.6697 22.1371L37.5836 22.1951L37.3941 22.2548L37.2046 22.3143L37.0176 22.3237ZM44.6231 22.9816L44.845 22.9844L45.0554 22.9504C45.1711 22.9318 45.3182 22.9018 45.3825 22.8837C45.4467 22.8655 45.5624 22.8187 45.6394 22.7795L45.7797 22.708L45.9003 22.6025L46.0208 22.4969L46.1479 22.3286C46.2177 22.236 46.281 22.1445 46.2884 22.1253L46.302 22.0904L46.2902 22.2066C46.2818 22.2843 46.271 22.3618 46.2579 22.4389C46.2465 22.5028 46.2305 22.6256 46.222 22.7118L46.2065 22.8685H47.1232V22.555L47.193 21.9626C47.2314 21.6368 47.2882 21.2031 47.3192 20.9986C47.3502 20.7942 47.3981 20.5016 47.4257 20.3483C47.453 20.195 47.5018 19.9179 47.5338 19.7328C47.5658 19.5476 47.6236 19.2235 47.6623 19.0127C47.7009 18.8019 47.7628 18.4674 47.7998 18.2695C47.8367 18.0714 47.8942 17.763 47.9275 17.5842C47.9608 17.4054 48.0203 17.0917 48.0598 16.8874C48.1013 16.6741 48.1441 16.4612 48.1883 16.2486C48.2194 16.1018 48.2448 15.9736 48.2447 15.9641V15.9466H47.2446L47.2298 16.0918C47.2217 16.1716 47.1834 16.4355 47.1448 16.6783C47.0989 16.965 47.0522 17.2514 47.0046 17.5377C46.977 17.7029 46.9496 17.868 46.9224 18.0333L46.9099 18.1107L46.8705 18.094C46.8488 18.0849 46.7311 18.0524 46.6091 18.0219L46.3871 17.9665L46.0834 17.9429L45.7795 17.9194L45.5226 17.9431L45.2656 17.967L45.0319 18.0257L44.7983 18.0844L44.5763 18.192L44.3542 18.2997L44.1907 18.4199L44.0271 18.5403L43.8858 18.691C43.8082 18.7737 43.696 18.9107 43.6364 18.9953L43.5283 19.1491L43.4013 19.4118C43.3315 19.5564 43.2464 19.7477 43.2124 19.8371C43.1783 19.9266 43.1184 20.1248 43.0789 20.2777L43.0075 20.5556L42.9722 20.9165L42.937 21.2773L42.9635 21.5676L42.9901 21.8581L43.0213 21.9626C43.0386 22.02 43.0748 22.1225 43.1018 22.1901L43.1512 22.3133L43.2411 22.4343L43.3311 22.5554L43.4338 22.639L43.5364 22.7226L43.6766 22.7919C43.7539 22.8298 43.8831 22.8791 43.9641 22.9012C44.045 22.9232 44.1764 22.9497 44.2562 22.96C44.3359 22.9704 44.5009 22.9801 44.6231 22.9816ZM45.0215 22.3227L44.845 22.3319L44.726 22.3107C44.6605 22.2989 44.5558 22.2675 44.4931 22.2408L44.3793 22.1924L44.2835 22.1143L44.1878 22.0363L44.1166 21.9008L44.0454 21.7654L44.0129 21.6144L43.9806 21.4634L43.9833 21.1614L43.986 20.8595L44.0238 20.5923L44.0614 20.3252L44.12 20.1395C44.1523 20.0373 44.1787 19.9408 44.1789 19.9251C44.1791 19.9095 44.2108 19.826 44.2495 19.7394C44.2948 19.6393 44.3427 19.5403 44.3931 19.4426C44.4334 19.3659 44.5087 19.2465 44.5604 19.177C44.6122 19.1077 44.7044 19.0032 44.7653 18.9447C44.8262 18.8865 44.923 18.8098 44.9806 18.7746L45.0852 18.7107L45.269 18.6475L45.4527 18.5843L45.8382 18.5841H46.2238L46.4457 18.6454C46.5678 18.679 46.6975 18.718 46.7338 18.7321L46.7999 18.7577L46.787 18.8214C46.78 18.8565 46.7521 19.0106 46.7253 19.1638C46.6985 19.3172 46.6455 19.6099 46.6077 19.8143C46.5699 20.0187 46.5119 20.3271 46.4786 20.4995C46.4455 20.6719 46.3974 20.8915 46.3718 20.9872C46.3456 21.0856 46.3189 21.184 46.2917 21.2821C46.2732 21.3485 46.2291 21.4636 46.1938 21.5376C46.1584 21.6117 46.0965 21.7195 46.0562 21.7769C46.0158 21.8344 45.9478 21.9141 45.9049 21.9539C45.8618 21.9938 45.7688 22.0646 45.6981 22.1113L45.5697 22.1963L45.3839 22.2549L45.1981 22.3135L45.0215 22.3227ZM10.6338 22.8685H11.2014L11.2422 22.6189C11.2645 22.4815 11.3083 22.2176 11.3394 22.0323L11.4679 21.2658C11.5075 21.0295 11.5669 20.6793 11.5999 20.4877C11.6328 20.2961 11.6852 19.9988 11.7162 19.8272C11.7473 19.6554 11.7786 19.5091 11.7858 19.502L11.7989 19.489H14.8519L14.8689 19.5059L14.8859 19.5227L14.8594 19.6568C14.8449 19.7306 14.8018 19.9581 14.7638 20.1626C14.7257 20.367 14.6617 20.7119 14.6215 20.9292C14.5792 21.1577 14.5362 21.3861 14.4925 21.6143C14.4616 21.774 14.3992 22.1084 14.3538 22.3576C14.3085 22.6067 14.2714 22.8236 14.2716 22.8396L14.2718 22.8686H15.4119L15.4371 22.7235C15.4511 22.6437 15.4733 22.4999 15.4868 22.4041C15.5001 22.3082 15.5325 22.1043 15.5586 21.9511C15.5847 21.7979 15.6368 21.4946 15.6744 21.2775C15.712 21.0603 15.7751 20.6892 15.8144 20.4528C15.8538 20.2164 15.9121 19.8715 15.9442 19.6864C15.9848 19.4538 16.027 19.2215 16.0709 18.9896C16.1085 18.7915 16.1713 18.4571 16.2104 18.2462C16.2495 18.0354 16.3079 17.7167 16.3404 17.5377C16.3728 17.3589 16.432 17.0348 16.4719 16.8177C16.5118 16.6005 16.5621 16.3471 16.5837 16.2544L16.6231 16.086H15.4687L15.453 16.1964C15.4445 16.2569 15.4166 16.4268 15.3911 16.5738C15.3656 16.7207 15.3193 16.982 15.2882 17.1544C15.2571 17.327 15.2002 17.6562 15.1618 17.8862C15.1242 18.1115 15.0879 18.3369 15.0531 18.5627L15.0141 18.821L14.1669 18.8381L13.3195 18.8551L12.6099 18.8383C12.2196 18.8292 11.8981 18.8198 11.8954 18.8176C11.8928 18.8153 11.906 18.7251 11.9249 18.617C11.9498 18.4776 11.9762 18.3385 12.0043 18.1997C12.0402 18.0218 12.075 17.8437 12.1088 17.6654C12.1415 17.493 12.1784 17.2788 12.191 17.1893C12.2035 17.0999 12.2299 16.9509 12.2495 16.8583C12.2691 16.7657 12.3063 16.5706 12.3321 16.4248C12.3579 16.2789 12.3855 16.143 12.3934 16.1228L12.4075 16.0859H11.2625L11.2259 16.2892C11.2057 16.401 11.1788 16.5603 11.1661 16.6434C11.1534 16.7264 11.1107 16.9929 11.0713 17.2357C11.0319 17.4784 10.9737 17.839 10.9419 18.037L10.8137 18.8384C10.7687 19.1176 10.7211 19.3963 10.6712 19.6746C10.6296 19.9031 10.5872 20.1315 10.544 20.3598C10.5136 20.5195 10.4558 20.8226 10.4153 21.0335C10.3729 21.2544 10.3292 21.4751 10.2843 21.6955C10.2526 21.8488 10.2176 22.0265 10.2066 22.0904C10.1954 22.1542 10.1593 22.3385 10.1261 22.4998C10.0931 22.661 10.066 22.81 10.066 22.8308V22.8684H10.6338V22.8685ZM16.9185 22.8685H17.4211L17.4352 22.8318C17.4431 22.8115 17.4495 22.7586 17.4495 22.7141C17.4495 22.6695 17.4811 22.4377 17.5197 22.1991C17.6079 21.6554 17.6982 21.112 17.7908 20.569C17.8305 20.3402 17.8722 20.1118 17.916 19.8838C17.9532 19.6922 18.0104 19.3942 18.043 19.2219C18.0755 19.0494 18.1397 18.7212 18.1854 18.4926C18.2312 18.264 18.2743 18.0679 18.2812 18.0567L18.294 18.0362L17.7857 18.0425L17.2775 18.0487L17.2351 18.3508C17.2119 18.5168 17.1609 18.8462 17.122 19.0824C17.0831 19.3187 17.0242 19.6795 16.9912 19.8838C16.9511 20.1281 16.9084 20.372 16.8631 20.6155C16.8257 20.8135 16.7685 21.1166 16.7358 21.2891C16.7032 21.4616 16.6446 21.7648 16.6057 21.9628C16.5668 22.1608 16.5145 22.4221 16.4896 22.5435C16.4646 22.6649 16.4379 22.7877 16.43 22.8164L16.416 22.8686H16.9185V22.8685ZM28.6731 22.8685H29.1719L29.1869 22.6587C29.1952 22.5433 29.2233 22.3107 29.2496 22.1419C29.2759 21.973 29.3297 21.6363 29.3691 21.3936C29.419 21.0936 29.4733 20.7942 29.532 20.4957C29.5823 20.2446 29.639 19.9951 29.6581 19.9412C29.6772 19.8872 29.6929 19.8288 29.6929 19.8113C29.6929 19.7937 29.7305 19.6984 29.7763 19.5994C29.8221 19.5003 29.9075 19.3486 29.9661 19.2623L30.0726 19.1053L30.2151 18.974L30.3577 18.8429L30.5334 18.7594L30.7092 18.6759L30.978 18.6773L31.2465 18.6787L31.3786 18.7179C31.4513 18.7395 31.517 18.7571 31.5246 18.7571C31.5323 18.7571 31.5386 18.7325 31.5386 18.7023C31.5386 18.6722 31.5649 18.5192 31.597 18.3624C31.6291 18.2056 31.6554 18.0707 31.6554 18.0626C31.6554 18.0545 31.5792 18.0248 31.486 17.9967C31.3929 17.9685 31.264 17.939 31.1998 17.9311L31.083 17.9167L30.9311 17.9434C30.8476 17.9581 30.7234 17.9905 30.6552 18.0155C30.5868 18.0405 30.474 18.097 30.4045 18.1412C30.3351 18.1854 30.2269 18.2715 30.1644 18.3326C30.1017 18.3936 29.9963 18.5168 29.9301 18.6062C29.8786 18.6757 29.8274 18.7454 29.7765 18.8153L29.7431 18.8617L29.7634 18.7688C29.7745 18.7176 29.8057 18.5504 29.8325 18.3971C29.8592 18.2438 29.887 18.1 29.8937 18.0778L29.9062 18.037H29.0151V18.0931C29.0151 18.1238 28.9887 18.3094 28.9567 18.5053C28.9245 18.7014 28.8715 19.0288 28.8389 19.2333C28.8063 19.4377 28.7483 19.7931 28.7103 20.0231C28.6696 20.2673 28.6267 20.5112 28.5815 20.7547C28.4936 21.2197 28.4036 21.6843 28.3117 22.1484C28.2723 22.3465 28.2252 22.5802 28.2071 22.6682C28.1888 22.7559 28.174 22.8369 28.174 22.8481V22.8685H28.6731ZM40.5152 22.8685H41.0252V22.5581L41.0839 22.1733C41.1163 21.9617 41.1696 21.6264 41.2026 21.4285C41.2354 21.2304 41.2763 20.9796 41.2935 20.8709C41.3108 20.7624 41.3564 20.5272 41.3948 20.3484C41.4334 20.1694 41.4814 19.9761 41.5017 19.9187C41.5221 19.8612 41.5387 19.8008 41.5389 19.7846C41.5392 19.7683 41.5826 19.664 41.6356 19.5527L41.7319 19.3503L41.859 19.1824L41.986 19.0147L42.125 18.9108C42.2014 18.8536 42.3243 18.7779 42.3982 18.7423L42.5324 18.6776L42.8244 18.6796L43.1165 18.6817L43.2315 18.7183L43.3464 18.7551L43.3658 18.7431L43.3852 18.7312L43.3863 18.6571C43.3868 18.6164 43.4118 18.4646 43.4418 18.32L43.4965 18.057L43.435 18.0332C43.3761 18.0115 43.3167 17.9914 43.2568 17.9727L43.14 17.9361L42.9297 17.9367L42.7194 17.9372L42.548 17.9973L42.3766 18.0571L42.2479 18.1343L42.1193 18.2115L41.952 18.3857L41.7847 18.5599L41.6948 18.6951C41.6454 18.7693 41.6019 18.8269 41.5981 18.8228C41.5943 18.8187 41.6212 18.6638 41.6578 18.4786C41.6944 18.2933 41.7249 18.1182 41.7254 18.0895L41.7264 18.0372H40.8619V18.052C40.8619 18.0601 40.8404 18.2092 40.814 18.383C40.7877 18.557 40.7347 18.8926 40.6965 19.129C40.6506 19.4117 40.604 19.6943 40.5569 19.9768C40.5159 20.221 40.4729 20.4649 40.4279 20.7085C40.3955 20.8809 40.3379 21.1841 40.2999 21.3821C40.2619 21.5802 40.1995 21.899 40.1612 22.0906L40.0485 22.6538L40.0053 22.8686H40.5152V22.8685ZM17.9069 17.2005L18.0487 17.201L18.1615 17.1628L18.2743 17.1246L18.3741 17.024L18.474 16.9234L18.5265 16.7892L18.5791 16.6551L18.5809 16.4576L18.5828 16.2603L18.5361 16.1832L18.4893 16.1061L18.408 16.0562L18.3266 16.0061H17.9753L17.8557 16.0593L17.7361 16.1124L17.6667 16.1864L17.5973 16.2603L17.5428 16.3881L17.4883 16.5158L17.478 16.7148L17.4677 16.9138L17.5184 17.0128L17.5692 17.1116L17.6671 17.1558L17.765 17.2L17.9069 17.2005Z" fill="#B3131B"/>
<rect x="0.5" y="0.5" width="57" height="39" rx="5.5" stroke="#F5F5FA"/>
</svg>
