<svg width="58" height="40" viewBox="0 0 58 40" fill="none" xmlns="http://www.w3.org/2000/svg">
<rect x="0.5" y="0.5" width="57" height="39" rx="5.5" fill="white"/>
<path d="M32.096 19.5096C32.096 25.6821 27.1497 30.6858 21.048 30.6858C14.9464 30.6858 10 25.6821 10 19.5096C10 13.3371 14.9464 8.33331 21.048 8.33331C27.1497 8.33331 32.096 13.3371 32.096 19.5096Z" fill="#ED0006"/>
<path d="M46.429 19.5096C46.429 25.6821 41.4827 30.6858 35.381 30.6858C29.2794 30.6858 24.333 25.6821 24.333 19.5096C24.333 13.3371 29.2794 8.33331 35.381 8.33331C41.4827 8.33331 46.429 13.3371 46.429 19.5096Z" fill="#0099DF"/>
<path fill-rule="evenodd" clip-rule="evenodd" d="M28.2145 28.0156C30.5898 25.9657 32.096 22.9155 32.096 19.5094C32.096 16.1034 30.5899 13.0532 28.2145 11.0032C25.8392 13.0532 24.333 16.1034 24.333 19.5094C24.333 22.9155 25.8392 25.9657 28.2145 28.0156Z" fill="#6C6BBD"/>
<rect x="0.5" y="0.5" width="57" height="39" rx="5.5" stroke="#F5F5FA"/>
</svg>
