<svg width="58" height="40" viewBox="0 0 58 40" fill="none" xmlns="http://www.w3.org/2000/svg">
<rect x="0.5" y="0.5" width="57" height="39" rx="5.5" fill="white"/>
<path d="M38.9951 19.7024V26.6144H42.82V22.5184H47.1548C48.978 22.5056 50.527 21.3344 51.1135 19.7024H38.9951Z" fill="#37A72E"/>
<path d="M38.4854 14.0063C38.7085 16.8287 41.3731 19.0623 44.6242 19.0623C44.637 19.0623 51.2731 19.0623 51.2731 19.0623C51.3241 18.8063 51.3496 18.5375 51.3496 18.2623C51.3496 15.9199 49.4691 14.0255 47.1423 14.0063H38.4854Z" fill="url(#paint0_linear_12200_282158)"/>
<path d="M32.8243 18.9919V18.9855V18.9919C32.8689 18.9151 32.939 18.8703 33.0283 18.8703C33.1557 18.8703 33.2514 18.9727 33.2577 19.0943V26.5503H37.0826V14.0063H33.2577C32.7733 14.0255 32.225 14.3775 32.021 14.8191L28.9803 21.3727C28.9739 21.3983 28.9612 21.4239 28.9484 21.4495C28.9038 21.5135 28.8273 21.5583 28.738 21.5583C28.5978 21.5583 28.4831 21.4431 28.4831 21.3023V14.0063H24.6582V26.5503H28.4831C28.9612 26.5247 29.4966 26.1727 29.7006 25.7375L32.8243 19.0111C32.8179 19.0047 32.8243 18.9983 32.8243 18.9919Z" fill="#37A72E"/>
<path d="M18.5447 19.2096L16.3071 26.5504H13.5532L11.3221 19.2032C11.303 19.088 11.201 18.9984 11.0735 18.9984C10.9332 18.9984 10.8249 19.1136 10.8249 19.248V26.544H7V14H10.283H11.2583C11.9596 14 12.699 14.5504 12.903 15.2224L14.7644 21.3344C14.8601 21.6416 15.0067 21.6352 15.1023 21.3344L16.9637 15.2224C17.1677 14.544 17.9072 14 18.6084 14H19.5838H22.8668V26.544H19.0419V19.248C19.0419 19.248 19.0419 19.248 19.0419 19.2416C19.0419 19.1008 18.9272 18.992 18.7933 18.992C18.6658 18.9984 18.5638 19.088 18.5447 19.2096Z" fill="#37A72E"/>
<rect x="0.5" y="0.5" width="57" height="39" rx="5.5" stroke="#F5F5FA"/>
<defs>
<linearGradient id="paint0_linear_12200_282158" x1="38.4869" y1="16.5344" x2="51.3488" y2="16.5344" gradientUnits="userSpaceOnUse">
<stop stop-color="#00A0E5"/>
<stop offset="1" stop-color="#0077C3"/>
</linearGradient>
</defs>
</svg>
