<svg width="58" height="40" viewBox="0 0 58 40" fill="none" xmlns="http://www.w3.org/2000/svg">
<rect x="0.5" y="0.5" width="57" height="39" rx="5.5" fill="white"/>
<path d="M35.5919 13.5014C35.6499 10.4881 33.1634 8.17493 29.7446 8.17493H22.6741C22.5093 8.17498 22.3499 8.23386 22.2246 8.34096C22.0994 8.44807 22.0164 8.59637 21.9908 8.75917L19.1573 26.463C19.1446 26.5432 19.1495 26.6253 19.1715 26.7034C19.1936 26.7816 19.2323 26.854 19.2851 26.9158C19.3378 26.9775 19.4033 27.0271 19.4771 27.0611C19.5508 27.0951 19.6311 27.1128 19.7123 27.1128H23.9016L23.2464 31.2128C23.2338 31.293 23.2386 31.3751 23.2607 31.4533C23.2828 31.5315 23.3216 31.604 23.3744 31.6657C23.4272 31.7275 23.4928 31.7771 23.5666 31.8111C23.6404 31.845 23.7207 31.8626 23.802 31.8625H27.2143C27.3795 31.8625 27.5262 31.803 27.6513 31.6963C27.7764 31.5891 27.7969 31.4413 27.8224 31.2783L28.8241 25.3844C28.8496 25.222 28.9324 25.0108 29.058 24.9036C29.1831 24.7964 29.2925 24.7379 29.4571 24.7374H31.5461C34.894 24.7374 37.7351 22.3582 38.2543 19.0482C38.6214 16.6982 37.6143 14.561 35.5925 13.5014H35.5919Z" fill="#001C64"/>
<path d="M24.808 20.5836L23.7646 27.2004L23.1094 31.3502C23.0967 31.4305 23.1016 31.5125 23.1237 31.5907C23.1458 31.6689 23.1846 31.7414 23.2374 31.8032C23.2902 31.8649 23.3558 31.9145 23.4296 31.9485C23.5034 31.9824 23.5837 32 23.665 31.9999H27.2766C27.4413 31.9998 27.6005 31.9408 27.7257 31.8337C27.8509 31.7266 27.9337 31.5784 27.9594 31.4157L28.9113 25.3837C28.9369 25.2211 29.0198 25.0729 29.145 24.9659C29.2701 24.8589 29.4294 24.8001 29.5941 24.8H31.7204C35.0683 24.8 37.9088 22.358 38.4281 19.048C38.7963 16.6986 37.6137 14.5614 35.5919 13.5012C35.5865 13.7514 35.5648 14.001 35.5264 14.2484C35.0071 17.5579 32.166 20.0005 28.8181 20.0005H25.4908C25.3262 20.0005 25.167 20.0592 25.0419 20.1661C24.9167 20.273 24.8338 20.4211 24.808 20.5836Z" fill="#0070E0"/>
<path d="M23.7638 27.2005H19.562C19.4807 27.2005 19.4005 27.183 19.3267 27.149C19.2529 27.115 19.1873 27.0654 19.1346 27.0037C19.0818 26.9419 19.0431 26.8694 19.021 26.7912C18.999 26.713 18.9942 26.6309 19.007 26.5507L21.8399 8.5837C21.8656 8.42095 21.9486 8.27271 22.0739 8.1657C22.1991 8.05868 22.3585 7.99992 22.5233 8H29.7448C33.1631 8 35.6496 10.488 35.5916 13.5013C34.741 13.0551 33.7414 12.8001 32.646 12.8001H26.6254C26.4608 12.8003 26.3016 12.8591 26.1765 12.9661C26.0513 13.0731 25.9684 13.2212 25.9426 13.3838L24.8083 20.5837L23.7632 27.2005H23.7638Z" fill="#003087"/>
<rect x="0.5" y="0.5" width="57" height="39" rx="5.5" stroke="#F5F5FA"/>
</svg>
