<svg width="12" height="8" viewBox="0 0 12 8" fill="none" xmlns="http://www.w3.org/2000/svg">
<path d="M1.58926 0.910744C1.26382 0.585307 0.736181 0.585307 0.410744 0.910744C0.0853075 1.23618 0.0853075 1.76382 0.410744 2.08926L1.58926 0.910744ZM6 6.5L5.41074 7.08926C5.73618 7.41469 6.26382 7.41469 6.58926 7.08926L6 6.5ZM11.5893 2.08926C11.9147 1.76382 11.9147 1.23618 11.5893 0.910744C11.2638 0.585307 10.7362 0.585307 10.4107 0.910744L11.5893 2.08926ZM0.410744 2.08926L5.41074 7.08926L6.58926 5.91074L1.58926 0.910744L0.410744 2.08926ZM6.58926 7.08926L11.5893 2.08926L10.4107 0.910744L5.41074 5.91074L6.58926 7.08926Z" fill="#8E90AA"/>
</svg>
