<svg width="12" height="12" viewBox="0 0 12 12" fill="none" xmlns="http://www.w3.org/2000/svg">
<path d="M5.33325 10.6666C5.33325 11.0348 5.63173 11.3333 5.99992 11.3333C6.36811 11.3333 6.66659 11.0348 6.66659 10.6666H5.33325ZM5.99992 1.33325L6.47132 0.861847C6.21097 0.601498 5.78886 0.601498 5.52851 0.861847L5.99992 1.33325ZM0.861847 5.52851C0.601498 5.78886 0.601498 6.21097 0.861847 6.47132C1.1222 6.73167 1.54431 6.73167 1.80466 6.47132L0.861847 5.52851ZM10.1952 6.47132C10.4555 6.73167 10.8776 6.73167 11.138 6.47132C11.3983 6.21097 11.3983 5.78886 11.138 5.52851L10.1952 6.47132ZM6.66659 10.6666V1.33325H5.33325V10.6666H6.66659ZM1.80466 6.47132L6.47132 1.80466L5.52851 0.861847L0.861847 5.52851L1.80466 6.47132ZM5.52851 1.80466L10.1952 6.47132L11.138 5.52851L6.47132 0.861847L5.52851 1.80466Z" fill="#8E90AA"/>
</svg>
