<svg width="14" height="14" viewBox="0 0 14 14" fill="none" xmlns="http://www.w3.org/2000/svg">
<path d="M12.8334 7.83329C13.2937 7.83329 13.6667 7.4602 13.6667 6.99996C13.6667 6.53972 13.2937 6.16663 12.8334 6.16663V7.83329ZM1.16675 6.99996L0.577492 6.4107C0.252056 6.73614 0.252056 7.26378 0.577492 7.58921L1.16675 6.99996ZM6.41083 13.4225C6.73626 13.748 7.2639 13.748 7.58934 13.4225C7.91477 13.0971 7.91477 12.5695 7.58934 12.244L6.41083 13.4225ZM7.58934 1.75588C7.91477 1.43044 7.91477 0.902807 7.58934 0.57737C7.2639 0.251933 6.73626 0.251933 6.41083 0.57737L7.58934 1.75588ZM12.8334 6.16663H1.16675V7.83329H12.8334V6.16663ZM7.58934 12.244L1.756 6.4107L0.577492 7.58921L6.41083 13.4225L7.58934 12.244ZM1.756 7.58921L7.58934 1.75588L6.41083 0.57737L0.577492 6.4107L1.756 7.58921Z" fill="#4D506B"/>
</svg>
