<svg width="12" height="12" viewBox="0 0 12 12" fill="none" xmlns="http://www.w3.org/2000/svg">
<path d="M6.66671 1.33325C6.66671 0.965062 6.36823 0.666585 6.00004 0.666585C5.63185 0.666585 5.33337 0.965062 5.33337 1.33325H6.66671ZM6.00004 10.6666L5.52864 11.138C5.78899 11.3983 6.2111 11.3983 6.47145 11.138L6.00004 10.6666ZM11.1381 6.47132C11.3985 6.21097 11.3985 5.78886 11.1381 5.52851C10.8778 5.26816 10.4557 5.26816 10.1953 5.52851L11.1381 6.47132ZM1.80478 5.52851C1.54443 5.26816 1.12232 5.26816 0.86197 5.52851C0.60162 5.78886 0.60162 6.21097 0.86197 6.47132L1.80478 5.52851ZM5.33337 1.33325V10.6666H6.66671V1.33325H5.33337ZM10.1953 5.52851L5.52864 10.1952L6.47145 11.138L11.1381 6.47132L10.1953 5.52851ZM6.47145 10.1952L1.80478 5.52851L0.86197 6.47132L5.52864 11.138L6.47145 10.1952Z" fill="#8E90AA"/>
</svg>
