<svg width="14" height="14" viewBox="0 0 14 14" fill="none" xmlns="http://www.w3.org/2000/svg">
<path d="M1.16663 6.16663C0.706389 6.16663 0.333293 6.53972 0.333293 6.99996C0.333293 7.4602 0.706389 7.83329 1.16663 7.83329V6.16663ZM12.8333 6.99996L13.4225 7.58921C13.748 7.26378 13.748 6.73614 13.4225 6.4107L12.8333 6.99996ZM7.58921 0.57737C7.26378 0.251933 6.73614 0.251933 6.4107 0.57737C6.08527 0.902807 6.08527 1.43044 6.4107 1.75588L7.58921 0.57737ZM6.4107 12.244C6.08527 12.5695 6.08527 13.0971 6.4107 13.4225C6.73614 13.748 7.26378 13.748 7.58921 13.4225L6.4107 12.244ZM1.16663 7.83329H12.8333V6.16663H1.16663V7.83329ZM6.4107 1.75588L12.244 7.58921L13.4225 6.4107L7.58921 0.57737L6.4107 1.75588ZM12.244 6.4107L6.4107 12.244L7.58921 13.4225L13.4225 7.58921L12.244 6.4107Z" fill="#4D506B"/>
</svg>
