<svg width="16" height="16" viewBox="0 0 16 16" fill="none" xmlns="http://www.w3.org/2000/svg">
<path d="M5.43115 5.77869C5.30897 6.12602 5.49149 6.50663 5.83881 6.62881C6.18614 6.75099 6.56675 6.56847 6.68893 6.22115L5.43115 5.77869ZM9.94671 6.66659L9.28004 6.66559V6.66659H9.94671ZM7.73589 8.03413C7.38659 8.15056 7.19782 8.52811 7.31425 8.8774C7.43068 9.2267 7.80823 9.41547 8.15753 9.29904L7.73589 8.03413ZM8.00004 10.6666C7.63185 10.6666 7.33337 10.9651 7.33337 11.3333C7.33337 11.7014 7.63185 11.9999 8.00004 11.9999V10.6666ZM8.00671 11.9999C8.3749 11.9999 8.67337 11.7014 8.67337 11.3333C8.67337 10.9651 8.3749 10.6666 8.00671 10.6666V11.9999ZM14 7.99992C14 11.3136 11.3138 13.9999 8.00004 13.9999V15.3333C12.0501 15.3333 15.3334 12.05 15.3334 7.99992H14ZM8.00004 13.9999C4.68633 13.9999 2.00004 11.3136 2.00004 7.99992H0.666707C0.666707 12.05 3.94995 15.3333 8.00004 15.3333V13.9999ZM2.00004 7.99992C2.00004 4.68621 4.68633 1.99992 8.00004 1.99992V0.666585C3.94995 0.666585 0.666707 3.94983 0.666707 7.99992H2.00004ZM8.00004 1.99992C11.3138 1.99992 14 4.68621 14 7.99992H15.3334C15.3334 3.94983 12.0501 0.666585 8.00004 0.666585V1.99992ZM6.68893 6.22115C6.79342 5.92411 6.99966 5.67364 7.27113 5.5141L6.59556 4.36459C6.05262 4.68367 5.64013 5.18462 5.43115 5.77869L6.68893 6.22115ZM7.27113 5.5141C7.5426 5.35455 7.86177 5.29623 8.17212 5.34946L8.39753 4.03532C7.77684 3.92886 7.13849 4.0455 6.59556 4.36459L7.27113 5.5141ZM8.17212 5.34946C8.48247 5.4027 8.76396 5.56405 8.96674 5.80494L9.98678 4.94627C9.58121 4.46449 9.01822 4.14179 8.39753 4.03532L8.17212 5.34946ZM8.96674 5.80494C9.16953 6.04583 9.28051 6.35071 9.28004 6.66559L10.6134 6.66758C10.6143 6.03782 10.3923 5.42805 9.98678 4.94627L8.96674 5.80494ZM9.28004 6.66659C9.28004 6.97934 9.03664 7.3054 8.57691 7.61189C8.36733 7.7516 8.15301 7.85924 7.98845 7.93238C7.90712 7.96852 7.84027 7.99522 7.79531 8.01234C7.77289 8.02089 7.75608 8.02698 7.74583 8.03063C7.74071 8.03245 7.73724 8.03365 7.73554 8.03424C7.73469 8.03453 7.73428 8.03467 7.73433 8.03465C7.73436 8.03464 7.7345 8.03459 7.73476 8.03451C7.73489 8.03446 7.73505 8.03441 7.73524 8.03435C7.73533 8.03432 7.73549 8.03426 7.73554 8.03425C7.73571 8.03419 7.73589 8.03413 7.94671 8.66659C8.15753 9.29904 8.15772 9.29898 8.15792 9.29891C8.158 9.29888 8.15821 9.29881 8.15836 9.29876C8.15867 9.29866 8.15901 9.29854 8.15938 9.29842C8.16013 9.29817 8.16099 9.29788 8.16198 9.29754C8.16396 9.29687 8.16642 9.29603 8.16935 9.29502C8.17522 9.29301 8.18298 9.2903 8.19251 9.28692C8.21155 9.28015 8.23771 9.27062 8.26998 9.25833C8.3344 9.23379 8.4238 9.19798 8.52997 9.15079C8.74041 9.05726 9.02609 8.9149 9.31651 8.72129C9.85677 8.36111 10.6134 7.68716 10.6134 6.66659H9.28004ZM8.00004 11.9999H8.00671V10.6666H8.00004V11.9999Z" fill="#A8AAC2"/>
</svg>
