<svg width="20" height="20" viewBox="0 0 20 20" fill="none" xmlns="http://www.w3.org/2000/svg">
<rect x="0.5" y="0.5" width="19" height="19" rx="3.5" fill="#F5F5FA"/>
<path d="M16.0405 6.70711C16.431 6.31658 16.431 5.68342 16.0405 5.29289C15.65 4.90237 15.0168 4.90237 14.6263 5.29289L16.0405 6.70711ZM8.00008 13.3333L7.29297 14.0404C7.6835 14.431 8.31666 14.431 8.70719 14.0404L8.00008 13.3333ZM5.37385 9.29289C4.98333 8.90237 4.35017 8.90237 3.95964 9.29289C3.56912 9.68342 3.56912 10.3166 3.95964 10.7071L5.37385 9.29289ZM14.6263 5.29289L7.29297 12.6262L8.70719 14.0404L16.0405 6.70711L14.6263 5.29289ZM8.70719 12.6262L5.37385 9.29289L3.95964 10.7071L7.29297 14.0404L8.70719 12.6262Z" fill="#D5D5E2"/>
<rect x="0.5" y="0.5" width="19" height="19" rx="3.5" stroke="#D5D5E2"/>
</svg>
