<svg width="20" height="20" viewBox="0 0 20 20" fill="none" xmlns="http://www.w3.org/2000/svg">
<rect x="0.5" y="0.5" width="19" height="19" rx="3.5" fill="#46B0E6"/>
<path d="M15.3737 7.20711C15.7642 6.81658 15.7642 6.18342 15.3737 5.79289C14.9832 5.40237 14.35 5.40237 13.9595 5.79289L15.3737 7.20711ZM8.24992 12.9167L7.54281 13.6238C7.93334 14.0143 8.5665 14.0143 8.95703 13.6238L8.24992 12.9167ZM6.04036 9.29289C5.64983 8.90237 5.01667 8.90237 4.62615 9.29289C4.23562 9.68342 4.23562 10.3166 4.62615 10.7071L6.04036 9.29289ZM13.9595 5.79289L7.54281 12.2096L8.95703 13.6238L15.3737 7.20711L13.9595 5.79289ZM8.95703 12.2096L6.04036 9.29289L4.62615 10.7071L7.54281 13.6238L8.95703 12.2096Z" fill="white"/>
<rect x="0.5" y="0.5" width="19" height="19" rx="3.5" stroke="#46B0E6"/>
</svg>
