<svg width="24" height="24" viewBox="0 0 24 24" fill="none" xmlns="http://www.w3.org/2000/svg">
<g filter="url(#filter0_d_1100_302)">
<rect x="2" y="1" width="20" height="20" rx="4" fill="#F5FCFE"/>
<path d="M17.3737 8.20711C17.7642 7.81658 17.7642 7.18342 17.3737 6.79289C16.9832 6.40237 16.35 6.40237 15.9595 6.79289L17.3737 8.20711ZM10.2499 13.9167L9.54281 14.6238C9.93334 15.0143 10.5665 15.0143 10.957 14.6238L10.2499 13.9167ZM8.04036 10.2929C7.64983 9.90237 7.01667 9.90237 6.62615 10.2929C6.23562 10.6834 6.23562 11.3166 6.62615 11.7071L8.04036 10.2929ZM15.9595 6.79289L9.54281 13.2096L10.957 14.6238L17.3737 8.20711L15.9595 6.79289ZM10.957 13.2096L8.04036 10.2929L6.62615 11.7071L9.54281 14.6238L10.957 13.2096Z" fill="#46B0E6"/>
<rect x="2.5" y="1.5" width="19" height="19" rx="3.5" stroke="#46B0E6"/>
</g>
<defs>
<filter id="filter0_d_1100_302" x="0" y="0" width="24" height="24" filterUnits="userSpaceOnUse" color-interpolation-filters="sRGB">
<feFlood flood-opacity="0" result="BackgroundImageFix"/>
<feColorMatrix in="SourceAlpha" type="matrix" values="0 0 0 0 0 0 0 0 0 0 0 0 0 0 0 0 0 0 127 0" result="hardAlpha"/>
<feOffset dy="1"/>
<feGaussianBlur stdDeviation="1"/>
<feColorMatrix type="matrix" values="0 0 0 0 0.0627451 0 0 0 0 0.0941176 0 0 0 0 0.156863 0 0 0 0.05 0"/>
<feBlend mode="normal" in2="BackgroundImageFix" result="effect1_dropShadow_1100_302"/>
<feBlend mode="normal" in="SourceGraphic" in2="effect1_dropShadow_1100_302" result="shape"/>
</filter>
</defs>
</svg>
